<svg width="43" height="48" viewBox="0 0 43 48" fill="none" xmlns="http://www.w3.org/2000/svg">
<g clip-path="url(#clip0_61_1725)">
<path d="M5.12695 16.007C5.66667 14.2852 6.51107 12.8727 7.64837 12.7463C9.82727 12.5031 12.3699 16.1617 12.8152 20.4605C13.2261 24.4357 12.2967 28.7876 10.1178 29.0321C8.78801 29.1797 7.55625 28.6365 6.60556 26.5733C7.71587 26.7825 8.86036 26.7188 9.94065 26.3879C10.3882 24.387 10.6088 22.342 10.5985 20.2916C9.95082 18.391 8.98742 16.6131 7.74874 15.0327C6.83814 15.2487 5.95759 15.5759 5.12695 16.007Z" fill="#12233F"/>
<path d="M6.87361 24.362C6.01387 24.4672 5.15765 23.1881 4.9557 21.51C4.75138 19.8318 5.28519 18.3898 6.14141 18.287C6.9988 18.1843 7.85857 19.4598 8.05932 21.1379C8.2601 22.8173 7.72983 24.2593 6.87361 24.362Z" fill="#12233F"/>
<path d="M26.4451 16.1153C26.4986 16.6666 26.388 17.2214 26.1273 17.7101C25.8666 18.1987 25.4673 18.5995 24.9796 18.862C24.4919 19.1246 23.9375 19.2372 23.386 19.1858C22.8346 19.1343 22.3106 18.9211 21.8798 18.5729C21.4491 18.2247 21.1308 17.757 20.9649 17.2286C20.7991 16.7001 20.793 16.1345 20.9475 15.6026C21.102 15.0707 21.4102 14.5963 21.8334 14.2389C22.2566 13.8816 22.7759 13.6572 23.3261 13.594C23.6965 13.5546 24.071 13.5887 24.4282 13.6941C24.7854 13.7995 25.1183 13.9743 25.408 14.2085C25.6976 14.4426 25.9383 14.7315 26.1163 15.0587C26.2942 15.3859 26.406 15.7449 26.4451 16.1153Z" fill="#12233F"/>
<path d="M31.5756 15.5499C31.3827 13.3177 30.312 11.2531 28.5985 9.80947C26.8849 8.36583 24.6686 7.66109 22.436 7.84994C20.2185 8.17139 18.2193 9.35967 16.8773 11.1539C15.5352 12.9481 14.96 15.2015 15.278 17.4194C15.4602 19.3302 16.2759 21.1252 17.5956 22.5189C18.9153 23.9127 20.6632 24.8251 22.5611 25.1112C22.5611 25.1112 22.4915 24.288 22.3911 23.4696C22.299 22.6559 22.1868 21.8529 22.1868 21.8529L21.2113 21.9556C20.4792 21.2417 19.8098 20.466 19.2107 19.6373C18.6693 18.8457 18.2031 18.0051 17.8183 17.1266C17.8183 17.1266 18.2328 15.6551 18.7784 14.2969C19.3394 12.9187 20.0279 11.6551 20.0279 11.6551C20.9082 11.4537 21.7982 11.298 22.6946 11.1886C24.1437 11.0232 25.64 11.0114 25.64 11.0114C26.3133 11.6938 26.9332 12.427 27.4941 13.2045C28.0695 14.0474 28.586 14.9289 29.04 15.8428C28.894 16.7692 28.6473 17.6769 28.3043 18.5497C27.892 19.5122 27.3964 20.4368 26.8233 21.3132L25.9447 21.4572C25.9447 21.4572 26.0639 22.232 26.1218 23.0267C26.1868 23.8628 26.2257 24.6896 26.2257 24.6896C28.009 23.9809 29.5041 22.6965 30.4735 21.0404C31.4429 19.3844 31.8308 17.4518 31.5756 15.5499Z" fill="#12233F"/>
<path d="M29.9355 8.41163C27.8628 6.54685 26.1516 5.08598 26.174 4.99512C26.6397 5.13827 27.0859 5.33818 27.5026 5.59034C28.585 6.15633 29.5936 6.85321 30.5059 7.66532C31.8297 8.78539 32.9276 10.1478 33.7406 11.6795C32.4048 10.6713 31.1339 9.57991 29.9355 8.4117" fill="#12233F"/>
<path d="M15.0769 4.67739C14.0556 5.0414 13.0732 5.50667 12.1445 6.06623C14.0975 5.72536 15.9716 5.0297 17.6739 4.01367C16.7901 4.1566 15.9209 4.37874 15.0769 4.67739Z" fill="#12233F"/>
<path d="M22.6618 4.18486C21.6112 3.75806 20.4623 3.63291 19.3444 3.82348C19.7005 3.87634 20.0444 3.9919 20.3601 4.16479L16.3306 5.97642L11.511 7.23889C11.2778 7.19878 11.0648 7.08149 10.9063 6.90585C9.65682 7.86008 8.86084 8.71748 8.88327 8.92297C8.92817 9.33395 12.2148 8.5734 16.0188 7.26369C19.8275 5.95627 22.7988 4.57695 22.6618 4.18479" fill="#12233F"/>
<path d="M33.4961 21.1312C33.9933 17.5978 34.709 14.709 35.0574 14.8283C35.8639 16.9673 36.0797 19.2839 35.6822 21.5351C35.2546 24.497 33.8528 27.6538 33.2588 27.6183C32.8927 27.5959 33.0025 24.6611 33.4961 21.1312Z" fill="#12233F"/>
<path d="M17.6408 34.4382C15.8694 34.0769 14.9801 33.3837 14.7356 32.4212C14.19 30.2978 17.6408 28.3362 21.9125 27.6843C25.8168 27.0879 29.1743 28.3409 29.5274 29.7923C29.8014 30.9202 29.2771 31.8283 27.7831 32.8145C27.9404 32.0097 27.9632 31.1844 27.8504 30.3722C25.9935 29.946 24.1105 29.6426 22.2136 29.464C20.3258 30.1097 18.5335 31.0066 16.885 32.1307C16.985 32.9416 17.2417 33.7253 17.6408 34.4383" fill="#12233F"/>
<path d="M25.7405 32.5804C25.8657 33.335 24.6127 34.1652 22.9416 34.4322C21.2681 34.7003 19.8202 34.3047 19.701 33.5465C19.5758 32.7906 20.8324 31.9592 22.5023 31.6935C24.1675 31.4266 25.6212 31.8234 25.7405 32.5804" fill="#12233F"/>
<path d="M2.37402 39.9722H3.816V44.2532H5.56858V45.5098H2.37402V39.9722Z" fill="#12233F"/>
<path d="M9.34571 39.9727H7.90137V45.5103H9.34571V39.9727Z" fill="#12233F"/>
<path d="M14.6074 39.7714C15.1125 39.7446 15.615 39.8606 16.0572 40.1063C16.4994 40.3519 16.8634 40.7172 17.1075 41.1602L15.949 41.7956C15.813 41.5573 15.615 41.3604 15.3761 41.2256C15.1372 41.0909 14.8662 41.0234 14.592 41.0303C13.6449 41.0303 13.2174 41.8003 13.2174 42.8077C13.2174 43.7465 13.6496 44.4977 14.7207 44.4977C15.0079 44.5028 15.2878 44.4074 15.5121 44.2279C15.7364 44.0485 15.8909 43.7964 15.949 43.5151H14.6806V42.3577H17.4512V42.6612C17.5069 43.056 17.4738 43.4583 17.3544 43.8387C17.235 44.2191 17.0323 44.5682 16.7611 44.8604C16.4898 45.1526 16.1568 45.3806 15.7862 45.5279C15.4157 45.6752 15.017 45.738 14.6192 45.7117C14.2315 45.7194 13.8464 45.6475 13.4876 45.5006C13.1288 45.3536 12.804 45.1346 12.5331 44.8571C12.2623 44.5796 12.0513 44.2496 11.913 43.8873C11.7747 43.5251 11.7122 43.1383 11.7293 42.751C11.7165 42.3648 11.7815 41.98 11.9203 41.6193C12.0591 41.2587 12.269 40.9297 12.5374 40.6518C12.8059 40.3738 13.1275 40.1527 13.483 40.0015C13.8386 39.8502 14.221 39.772 14.6074 39.7714Z" fill="#12233F"/>
<path d="M21.2316 39.9731V43.3708C21.2156 43.5056 21.2303 43.6422 21.2747 43.7705C21.3191 43.8987 21.3921 44.0152 21.488 44.1112C21.584 44.2072 21.7005 44.2801 21.8287 44.3245C21.957 44.3689 22.0936 44.3837 22.2284 44.3676C22.356 44.382 22.4852 44.3686 22.6071 44.3282C22.729 44.2877 22.8406 44.2213 22.9343 44.1335C23.028 44.0456 23.1015 43.9385 23.1496 43.8194C23.1978 43.7004 23.2196 43.5723 23.2133 43.444V39.9731H24.673V43.5161C24.673 44.7809 23.8109 45.6691 22.1977 45.6691C20.9789 45.6691 19.7861 45.0337 19.7861 43.6744V39.9732L21.2316 39.9731Z" fill="#12233F"/>
<path d="M28.799 43.3545V44.2792H30.5918V45.5098H27.3535V39.9722H30.5611V41.2299H28.799V42.1275H30.4595V43.3545H28.799Z" fill="#12233F"/>
<path d="M38.3532 39.9722V45.5098H36.9042V41.1591H36.1094V39.9722H38.3532Z" fill="#12233F"/>
</g>
<defs>
<clipPath id="clip0_61_1725">
<rect width="42.1818" height="48" fill="white"/>
</clipPath>
</defs>
</svg>
