<svg width="24" height="24" viewBox="0 0 24 24" fill="none" xmlns="http://www.w3.org/2000/svg">
<path d="M5.25 20.9999C5.05109 20.9999 4.86032 20.9209 4.71967 20.7802C4.57902 20.6395 4.5 20.4488 4.5 20.2499V3.74987C4.50002 3.61954 4.53401 3.49147 4.5986 3.37828C4.66319 3.26508 4.75617 3.17067 4.86836 3.10436C4.98056 3.03804 5.1081 3.0021 5.23841 3.00009C5.36872 2.99808 5.49731 3.03005 5.6115 3.09287L20.6115 11.3429C20.7291 11.4076 20.8271 11.5027 20.8954 11.6183C20.9637 11.7339 20.9998 11.8656 20.9998 11.9999C20.9998 12.1341 20.9637 12.2659 20.8954 12.3814C20.8271 12.497 20.7291 12.5921 20.6115 12.6569L5.6115 20.9069C5.50076 20.9678 5.37641 20.9998 5.25 20.9999Z" fill="#FAFAFA"/>
</svg>
