<svg width="28" height="24" viewBox="0 0 28 24" fill="none" xmlns="http://www.w3.org/2000/svg">
<path d="M1.71454 16.2854L8.57163 5.99975H18.643L13.5002 11.5711L10.9288 12.214H12.8573H19.5001L0.643115 23.9996L7.07164 15.4283L1.71454 16.2854Z" fill="#FF5050"/>
<path d="M0 0L18.6427 5.99996L9.21423 8.99994L0 0Z" fill="#FF5050"/>
<path d="M15.2141 11.1429L19.9283 6.42866L27.6426 9.42864L15.2141 11.1429Z" fill="#FF5050"/>
<path d="M11.756 2.31923C11.9017 1.89321 12.1298 1.50005 12.4274 1.1622C12.7251 0.824352 13.0863 0.548433 13.4906 0.350198C13.8948 0.151963 14.3342 0.0352925 14.7835 0.00684855C15.2329 -0.0215954 15.6834 0.0387441 16.1094 0.184422C16.5355 0.3301 16.9286 0.558263 17.2665 0.855884C17.6043 1.15351 17.8802 1.51476 18.0785 1.91901C18.2767 2.32327 18.3934 2.76261 18.4218 3.21195C18.4503 3.6613 18.3899 4.11184 18.2442 4.53787L15.0001 3.42855L11.756 2.31923Z" fill="#FF5050"/>
</svg>
