<svg width="332" height="48" viewBox="0 0 332 48" fill="none" xmlns="http://www.w3.org/2000/svg">
<rect width="332" height="48" fill="white"/>
<path d="M53 31.9998C53 32.265 52.8946 32.5194 52.7071 32.7069C52.5196 32.8944 52.2652 32.9998 52 32.9998H36C35.7348 32.9998 35.4804 32.8944 35.2929 32.7069C35.1054 32.5194 35 32.265 35 31.9998V21.4898C34.9999 21.3374 35.0346 21.187 35.1015 21.0501C35.1684 20.9132 35.2657 20.7933 35.386 20.6998L43.386 14.4778C43.5615 14.3412 43.7776 14.2671 44 14.2671C44.2224 14.2671 44.4385 14.3412 44.614 14.4778L52.614 20.6998C52.7343 20.7933 52.8316 20.9132 52.8985 21.0501C52.9654 21.187 53.0001 21.3374 53 21.4898V31.9998ZM51 30.9998V21.9778L44 16.5338L37 21.9778V30.9998H51ZM39 26.9998H49V28.9998H39V26.9998Z" fill="#150000"/>
<path d="M130.583 31.4934V15.375C130.582 15.0769 130.463 14.7913 130.253 14.5805C130.042 14.3697 129.756 14.2509 129.458 14.25H116.708C116.41 14.2509 116.124 14.3697 115.913 14.5805C115.703 14.7913 115.584 15.0769 115.583 15.375V31.875C115.584 32.3718 115.783 32.8479 116.134 33.1992C116.485 33.5505 116.961 33.7485 117.458 33.75H132.833" stroke="#150000" stroke-width="1.5" stroke-linejoin="round"/>
<path d="M132.833 33.75C132.236 33.75 131.664 33.5129 131.242 33.091C130.82 32.669 130.583 32.0967 130.583 31.5V18H133.958C134.256 18 134.543 18.1185 134.754 18.3295C134.964 18.5405 135.083 18.8266 135.083 19.125V31.5C135.083 32.0967 134.846 32.669 134.424 33.091C134.002 33.5129 133.43 33.75 132.833 33.75Z" stroke="#150000" stroke-width="1.5" stroke-linejoin="round"/>
<path d="M124.583 18H127.583M124.583 21H127.583M118.583 24H127.583M118.583 27H127.583M118.583 30H127.583" stroke="#150000" stroke-width="1.5" stroke-linecap="round" stroke-linejoin="round"/>
<path d="M121.583 21.75H118.583C118.384 21.75 118.193 21.671 118.053 21.5303C117.912 21.3897 117.833 21.1989 117.833 21V18C117.833 17.8011 117.912 17.6103 118.053 17.4697C118.193 17.329 118.384 17.25 118.583 17.25H121.583C121.782 17.25 121.973 17.329 122.113 17.4697C122.254 17.6103 122.333 17.8011 122.333 18V21C122.333 21.1989 122.254 21.3897 122.113 21.5303C121.973 21.671 121.782 21.75 121.583 21.75Z" fill="#150000"/>
<path d="M198.667 19V33H212.667V35H198.667C197.567 35 196.667 34.1 196.667 33V19H198.667ZM214.667 15C215.767 15 216.667 15.9 216.667 17V29C216.667 30.1 215.767 31 214.667 31H202.667C201.567 31 200.667 30.1 200.667 29V17C200.667 15.9 201.567 15 202.667 15H205.867C206.267 13.8 207.367 13 208.667 13C209.967 13 211.067 13.8 211.467 15H214.667ZM208.667 15C208.067 15 207.667 15.5 207.667 16C207.667 16.5 208.067 17 208.667 17C209.267 17 209.667 16.6 209.667 16C209.667 15.4 209.267 15 208.667 15ZM204.667 19V17H202.667V29H214.667V17H212.667V19M206.667 27V21L211.667 24" fill="#150000"/>
<path d="M296 34H280V32C280 30.6739 280.527 29.4021 281.464 28.4645C282.402 27.5268 283.674 27 285 27H291C292.326 27 293.598 27.5268 294.536 28.4645C295.473 29.4021 296 30.6739 296 32V34ZM288 25C287.212 25 286.432 24.8448 285.704 24.5433C284.976 24.2417 284.315 23.7998 283.757 23.2426C283.2 22.6855 282.758 22.0241 282.457 21.2961C282.155 20.5681 282 19.7879 282 19C282 18.2121 282.155 17.4319 282.457 16.7039C282.758 15.9759 283.2 15.3145 283.757 14.7574C284.315 14.2002 284.976 13.7583 285.704 13.4567C286.432 13.1552 287.212 13 288 13C289.591 13 291.117 13.6321 292.243 14.7574C293.368 15.8826 294 17.4087 294 19C294 20.5913 293.368 22.1174 292.243 23.2426C291.117 24.3679 289.591 25 288 25Z" fill="#FF5050"/>
</svg>
