<svg width="48" height="48" viewBox="0 0 48 48" fill="none" xmlns="http://www.w3.org/2000/svg">
<g clip-path="url(#clip0_61_1813)">
<path d="M8.74862 6.15919H31.9082V17.9549L33.1375 18.9258V4.93107H7.52051V18.9258L8.74862 17.9549V6.15919Z" fill="#001B58"/>
<path d="M31.908 43.2602H8.74844V31.5145L7.52148 30.5529V44.4883H33.1385V30.5529L31.908 31.5145V43.2602Z" fill="#001B58"/>
<path d="M34.6588 20.1216L31.908 17.9552V6.15949H8.74842V17.9552L6 20.1216L7.48189 25.0306L6.06984 29.4134L8.74842 31.5146V43.2603H31.908V31.5146L34.5866 29.4134L33.1757 25.0306L34.6588 20.1216Z" fill="white"/>
<path d="M10.5364 7.9459H30.1199V16.5427L30.8137 17.0898V7.25443H9.84375V17.0898L10.5364 16.5427V7.9459Z" fill="#ED1A3B"/>
<path d="M30.1209 41.4708H10.5374V32.917L9.84473 32.3745V42.1646H30.8147V32.3745L30.1209 32.917V41.4708Z" fill="#ED1A3B"/>
<path d="M20.3287 23.1953L18.7013 13.907L11.9717 16.2271L19.2775 12.4612L20.3287 19.2351L21.3834 12.4612L28.6845 16.2271L21.9573 13.907L20.3287 23.1953Z" fill="#001B58"/>
<path d="M20.328 16.4995L19.803 11.1866L14.6484 14.112L20.328 9.63137L26.0065 14.112L20.8554 11.1866L20.328 16.4995Z" fill="#001B58"/>
<path d="M23.6589 16.2335L21.1934 22.0039L22.7521 15.0263L23.6589 16.2335Z" fill="#001B58"/>
<path d="M17.9057 15.0263L19.4655 22.0039L17 16.2335L17.9057 15.0263Z" fill="#001B58"/>
<path d="M31.3859 25.0484L32.7199 20.6307L30.5908 17.7298L33.9201 20.356L32.5058 25.0368L33.841 29.1891L31.0204 31.4009L32.6419 28.9528L31.3859 25.0484Z" fill="#001B58"/>
<path d="M25.0264 25.4873L30.16 27.2125L29.486 25.024L30.9062 20.6063L30.5302 19.0988L31.7059 20.8403L30.3765 24.9647L31.5884 28.8294L29.9854 31.6128L30.4825 28.5768L25.0264 25.4873Z" fill="#001B58"/>
<path d="M25.7295 24.919L27.6235 24.8119L29.8515 21.3476L28.4989 25.1367L28.734 25.8945L25.7295 24.919Z" fill="#001B58"/>
<path d="M27.6767 21.9061L24.0099 22.3694L23.0879 25.6685L23.3975 21.3811L30.0887 19.3754L27.9876 20.6803L27.6767 21.9061Z" fill="#001B58"/>
<path d="M6.73633 20.3555L10.068 17.7293L7.93767 20.6302L9.27288 25.0479L8.01566 28.9523L9.63608 31.4004L6.81549 29.1886L8.1507 25.0351L6.73633 20.3555Z" fill="#001B58"/>
<path d="M9.06875 28.827L10.2806 24.9646L8.95117 20.8402L10.1269 19.0987L9.75207 20.6062L11.1699 25.0204L10.4971 27.2147L15.6319 25.4872L10.1735 28.5767L10.6729 31.6104L9.06875 28.827Z" fill="#001B58"/>
<path d="M13.0357 24.8119L14.9297 24.919L11.9251 25.8945L12.158 25.1367L10.8076 21.3464L13.0357 24.8119Z" fill="#001B58"/>
<path d="M17.2582 21.3809L17.5713 25.6694L16.6482 22.3704L12.9802 21.9059L12.6694 20.6801L10.5693 19.3752L17.2582 21.3809Z" fill="#001B58"/>
<path d="M22.6714 36.6711L24.6842 35.1229L24.3407 36.642L20.3281 39.7886L16.3178 36.642L15.9756 35.1229L17.9895 36.6711H22.6714Z" fill="#001B58"/>
<path d="M23.2851 28.1293L20.4622 30.5366L25.3793 32.9428L27.7261 31.3142L28.0439 29.0024L25.5958 26.5997L29.3023 29.0291L28.8366 32.1489L25.8601 34.4293L25.2978 35.7075L24.7507 34.2047L20.3283 32.3968L15.9082 34.2047L15.3599 35.7075L14.7977 34.4293L11.8223 32.1489L11.3555 29.0291L15.0608 26.5997L12.6139 29.0024L12.9316 31.3142L15.2785 32.9428L20.1956 30.5366L17.3738 28.1293L16.5345 26.7405L17.9745 27.6089H22.6809L24.1232 26.7405L23.2851 28.1293Z" fill="#001B58"/>
</g>
<defs>
<clipPath id="clip0_61_1813">
<rect width="48" height="48" fill="white"/>
</clipPath>
</defs>
</svg>
