<svg width="16" height="23" viewBox="0 0 16 23" fill="none" xmlns="http://www.w3.org/2000/svg">
<path d="M12.0273 13.5977C11.6363 13.5997 11.2507 13.6894 10.8991 13.8603C10.5474 14.0311 10.2385 14.2788 9.99533 14.5849L6.17691 12.1978C6.31607 11.7486 6.31607 11.2679 6.17691 10.8188L9.99533 8.43159C10.3829 8.91149 10.9278 9.23872 11.5335 9.35533C12.1393 9.47194 12.7667 9.37039 13.3047 9.06867C13.8428 8.76695 14.2566 8.28454 14.473 7.7069C14.6894 7.12925 14.6944 6.49366 14.4871 5.9127C14.2797 5.33175 13.8734 4.84293 13.3402 4.53284C12.8069 4.22276 12.1811 4.11142 11.5737 4.21854C10.9662 4.32567 10.4162 4.64435 10.0212 5.11814C9.62621 5.59192 9.41164 6.19022 9.41552 6.80706C9.41798 7.04065 9.45315 7.27274 9.51999 7.49657L5.70156 9.88374C5.36446 9.45937 4.90369 9.15038 4.38311 8.9996C3.86254 8.84882 3.30795 8.86372 2.79622 9.04223C2.2845 9.22075 1.84098 9.55403 1.52715 9.99589C1.21331 10.4378 1.04471 10.9663 1.04471 11.5083C1.04471 12.0502 1.21331 12.5788 1.52715 13.0206C1.84098 13.4625 2.2845 13.7958 2.79622 13.9743C3.30795 14.1528 3.86254 14.1677 4.38311 14.0169C4.90369 13.8662 5.36446 13.5572 5.70156 13.1328L9.51999 15.52C9.45315 15.7438 9.41798 15.9759 9.41552 16.2095C9.41552 16.726 9.5687 17.231 9.85568 17.6605C10.1427 18.09 10.5506 18.4248 11.0278 18.6224C11.5051 18.8201 12.0302 18.8719 12.5368 18.7711C13.0435 18.6703 13.5088 18.4215 13.8741 18.0563C14.2394 17.691 14.4881 17.2256 14.5889 16.719C14.6897 16.2124 14.638 15.6872 14.4403 15.21C14.2426 14.7328 13.9078 14.3248 13.4783 14.0379C13.0488 13.7509 12.5439 13.5977 12.0273 13.5977ZM12.0273 5.23999C12.3372 5.23999 12.6402 5.3319 12.8979 5.50409C13.1556 5.67628 13.3565 5.92103 13.4751 6.20737C13.5937 6.49372 13.6247 6.8088 13.5643 7.11278C13.5038 7.41676 13.3545 7.69599 13.1354 7.91515C12.9162 8.13431 12.637 8.28355 12.333 8.34402C12.029 8.40449 11.714 8.37345 11.4276 8.25485C11.1413 8.13624 10.8965 7.93538 10.7243 7.67768C10.5521 7.41998 10.4602 7.117 10.4602 6.80706C10.4602 6.39145 10.6253 5.99286 10.9192 5.69898C11.2131 5.40509 11.6117 5.23999 12.0273 5.23999ZM3.6696 13.0753C3.35966 13.0753 3.05668 12.9834 2.79898 12.8112C2.54128 12.639 2.34042 12.3943 2.22182 12.108C2.10321 11.8216 2.07217 11.5065 2.13264 11.2025C2.19311 10.8986 2.34235 10.6193 2.56151 10.4002C2.78067 10.181 3.0599 10.0318 3.36388 9.97131C3.66786 9.91085 3.98295 9.94188 4.26929 10.0605C4.55563 10.1791 4.80038 10.3799 4.97257 10.6377C5.14476 10.8954 5.23667 11.1983 5.23667 11.5083C5.23667 11.9239 5.07157 12.3225 4.77768 12.6164C4.4838 12.9102 4.08521 13.0753 3.6696 13.0753ZM12.0273 17.7765C11.7174 17.7765 11.4144 17.6846 11.1567 17.5124C10.899 17.3403 10.6981 17.0955 10.5795 16.8092C10.4609 16.5228 10.4299 16.2077 10.4903 15.9038C10.5508 15.5998 10.7001 15.3205 10.9192 15.1014C11.1384 14.8822 11.4176 14.733 11.7216 14.6725C12.0256 14.6121 12.3406 14.6431 12.627 14.7617C12.9133 14.8803 13.1581 15.0812 13.3303 15.3389C13.5025 15.5966 13.5944 15.8995 13.5944 16.2095C13.5944 16.6251 13.4293 17.0237 13.1354 17.3176C12.8415 17.6114 12.4429 17.7765 12.0273 17.7765Z" fill="#FF5050"/>
</svg>
