<svg width="332" height="48" viewBox="0 0 332 48" fill="none" xmlns="http://www.w3.org/2000/svg">
<rect width="332" height="48" fill="white"/>
<path d="M53 31.9998C53 32.265 52.8946 32.5194 52.7071 32.7069C52.5196 32.8944 52.2652 32.9998 52 32.9998H36C35.7348 32.9998 35.4804 32.8944 35.2929 32.7069C35.1054 32.5194 35 32.265 35 31.9998V21.4898C34.9999 21.3374 35.0346 21.187 35.1015 21.0501C35.1684 20.9132 35.2657 20.7933 35.386 20.6998L43.386 14.4778C43.5615 14.3412 43.7776 14.2671 44 14.2671C44.2224 14.2671 44.4385 14.3412 44.614 14.4778L52.614 20.6998C52.7343 20.7933 52.8316 20.9132 52.8985 21.0501C52.9654 21.187 53.0001 21.3374 53 21.4898V31.9998ZM51 30.9998V21.9778L44 16.5338L37 21.9778V30.9998H51ZM39 26.9998H49V28.9998H39V26.9998Z" fill="#150000"/>
<path d="M135.271 17.25H132.834V31.5C132.834 31.8978 132.992 32.2794 133.273 32.5607C133.555 32.842 133.936 33 134.334 33C134.732 33 135.113 32.842 135.395 32.5607C135.676 32.2794 135.834 31.8978 135.834 31.5V17.8125C135.834 17.6633 135.775 17.5202 135.669 17.4148C135.564 17.3093 135.421 17.25 135.271 17.25Z" fill="#FF5050"/>
<path d="M133.544 34.3945C132.91 34.2205 132.35 33.8431 131.951 33.3202C131.551 32.7973 131.335 32.1579 131.334 31.5V14.0625C131.334 13.9133 131.275 13.7702 131.169 13.6648C131.064 13.5593 130.921 13.5 130.771 13.5H115.396C115.247 13.5 115.104 13.5593 114.999 13.6648C114.893 13.7702 114.834 13.9133 114.834 14.0625V31.875C114.834 32.5712 115.111 33.2389 115.603 33.7312C116.095 34.2234 116.763 34.5 117.459 34.5H133.53C133.543 34.5005 133.556 34.496 133.567 34.4875C133.577 34.4789 133.583 34.4669 133.585 34.4537C133.587 34.4405 133.584 34.4271 133.576 34.4162C133.568 34.4052 133.557 34.3975 133.544 34.3945ZM117.834 21.75V17.25H122.334V21.75H117.834ZM128.334 30.75H117.834V29.25H128.334V30.75ZM128.334 27.75H117.834V26.25H128.334V27.75ZM128.334 24.75H117.834V23.25H128.334V24.75ZM128.334 21.75H123.834V20.25H128.334V21.75ZM128.334 18.75H123.834V17.25H128.334V18.75Z" fill="#FF5050"/>
<path d="M198.666 19V33H212.666V35H198.666C197.566 35 196.666 34.1 196.666 33V19H198.666ZM214.666 15C215.766 15 216.666 15.9 216.666 17V29C216.666 30.1 215.766 31 214.666 31H202.666C201.566 31 200.666 30.1 200.666 29V17C200.666 15.9 201.566 15 202.666 15H205.866C206.266 13.8 207.366 13 208.666 13C209.966 13 211.066 13.8 211.466 15H214.666ZM208.666 15C208.066 15 207.666 15.5 207.666 16C207.666 16.5 208.066 17 208.666 17C209.266 17 209.666 16.6 209.666 16C209.666 15.4 209.266 15 208.666 15ZM204.666 19V17H202.666V29H214.666V17H212.666V19M206.666 27V21L211.666 24" fill="#150000"/>
<path d="M296 34H294V32C294 31.2044 293.684 30.4413 293.121 29.8787C292.559 29.3161 291.796 29 291 29H285C284.204 29 283.441 29.3161 282.879 29.8787C282.316 30.4413 282 31.2044 282 32V34H280V32C280 30.6739 280.527 29.4021 281.464 28.4645C282.402 27.5268 283.674 27 285 27H291C292.326 27 293.598 27.5268 294.536 28.4645C295.473 29.4021 296 30.6739 296 32V34ZM288 25C287.212 25 286.432 24.8448 285.704 24.5433C284.976 24.2417 284.315 23.7998 283.757 23.2426C283.2 22.6855 282.758 22.0241 282.457 21.2961C282.155 20.5681 282 19.7879 282 19C282 18.2121 282.155 17.4319 282.457 16.7039C282.758 15.9759 283.2 15.3145 283.757 14.7574C284.315 14.2002 284.976 13.7583 285.704 13.4567C286.432 13.1552 287.212 13 288 13C289.591 13 291.117 13.6321 292.243 14.7574C293.368 15.8826 294 17.4087 294 19C294 20.5913 293.368 22.1174 292.243 23.2426C291.117 24.3679 289.591 25 288 25ZM288 23C289.061 23 290.078 22.5786 290.828 21.8284C291.579 21.0783 292 20.0609 292 19C292 17.9391 291.579 16.9217 290.828 16.1716C290.078 15.4214 289.061 15 288 15C286.939 15 285.922 15.4214 285.172 16.1716C284.421 16.9217 284 17.9391 284 19C284 20.0609 284.421 21.0783 285.172 21.8284C285.922 22.5786 286.939 23 288 23Z" fill="#150000"/>
</svg>
