<svg width="14" height="14" viewBox="0 0 14 14" fill="none" xmlns="http://www.w3.org/2000/svg">
<path d="M14.0001 13.2678L10.0893 9.35703C11.0291 8.22883 11.4977 6.78177 11.3977 5.31687C11.2977 3.85197 10.6367 2.48201 9.55239 1.49199C8.46805 0.501976 7.04377 -0.0318833 5.57584 0.00147413C4.1079 0.0348316 2.70934 0.632837 1.67109 1.67109C0.632837 2.70934 0.0348316 4.1079 0.00147413 5.57584C-0.0318833 7.04377 0.501976 8.46805 1.49199 9.55239C2.48201 10.6367 3.85197 11.2977 5.31687 11.3977C6.78177 11.4977 8.22883 11.0291 9.35703 10.0893L13.2678 14.0001L14.0001 13.2678ZM1.05402 5.71461C1.05402 4.79284 1.32736 3.89176 1.83947 3.12532C2.35158 2.35889 3.07947 1.76153 3.93108 1.40878C4.78269 1.05603 5.71978 0.963738 6.62385 1.14357C7.52792 1.3234 8.35836 1.76728 9.01015 2.41907C9.66195 3.07087 10.1058 3.90131 10.2857 4.80538C10.4655 5.70944 10.3732 6.64654 10.0204 7.49815C9.6677 8.34976 9.07033 9.07765 8.3039 9.58976C7.53747 10.1019 6.63639 10.3752 5.71461 10.3752C4.47897 10.3738 3.29432 9.88238 2.42059 9.00864C1.54685 8.13491 1.05539 6.95026 1.05402 5.71461Z" fill="#5B5757"/>
</svg>
